<?xml version="1.0" encoding="UTF-8"?>
<svg xmlns="http://www.w3.org/2000/svg" xmlns:xlink="http://www.w3.org/1999/xlink" id="Ebene_2" data-name="Ebene 2" viewBox="0 0 68.62 50.34">
  <defs>
    <style>
      .cls-1, .cls-2 {
        fill: none;
      }

      .cls-2 {
        stroke: #000;
        stroke-miterlimit: 10;
        stroke-width: 1.05px;
      }

      .cls-3 {
        clip-path: url(#clippath);
      }

      .cls-4 {
        clip-path: url(#clippath-1);
      }

      .cls-5 {
        clip-path: url(#clippath-2);
      }

      .cls-6 {
        opacity: .8;
      }
    </style>
    <clipPath id="clippath">
      <rect class="cls-1" width="68.62" height="50.34"></rect>
    </clipPath>
    <clipPath id="clippath-1">
      <rect class="cls-1" y="0" width="68.62" height="50.34"></rect>
    </clipPath>
    <clipPath id="clippath-2">
      <rect class="cls-1" x="-9" y="-7" width="86.62" height="58.34"></rect>
    </clipPath>
  </defs>
  <g id="Ebene_1-2" data-name="Ebene 1">
    <g class="cls-3">
      <g class="cls-4">
        <g class="cls-6">
          <g class="cls-5">
            <path class="cls-2" d="M41.4,33.37l7.99,16.75m18.71-32.53c0,7.74-6.27,14.01-14.01,14.01s-14.01-6.27-14.01-14.01,6.27-14.01,14.01-14.01,14.01,6.27,14.01,14.01Zm-39.55,0c0,7.74-6.27,14.01-14.01,14.01S.53,25.33,.53,17.59,6.8,3.58,14.53,3.58s14.01,6.27,14.01,14.01Zm22.83,0c0,9.42-7.64,17.06-17.06,17.06s-17.06-7.64-17.06-17.06S24.89,.53,34.31,.53s17.06,7.64,17.06,17.06Z"></path>
          </g>
        </g>
      </g>
    </g>
  </g>
</svg>
