<?xml version="1.0" encoding="UTF-8"?>
<svg xmlns="http://www.w3.org/2000/svg" xmlns:xlink="http://www.w3.org/1999/xlink" version="1.1" id="Layer_1" x="0px" y="0px" viewBox="0 0 364.4 364.4" style="enable-background:new 0 0 364.4 364.4;" xml:space="preserve">
<style type="text/css">
	.st0{fill:#349CD5;}
</style>
<g>
	<path class="st0" d="M182.2,364.4C81.7,364.4,0,282.7,0,182.2C0,81.7,81.7,0,182.2,0s182.2,81.7,182.2,182.2   C364.4,282.7,282.7,364.4,182.2,364.4z M182.2,2C82.8,2,2,82.8,2,182.2c0,99.4,80.8,180.2,180.2,180.2   c99.4,0,180.2-80.8,180.2-180.2C362.4,82.8,281.6,2,182.2,2z"></path>
	<path class="st0" d="M182.2,278.9c-53.3,0-96.7-43.4-96.7-96.7s43.4-96.7,96.7-96.7s96.7,43.4,96.7,96.7S235.5,278.9,182.2,278.9z    M182.2,87.5c-52.2,0-94.7,42.5-94.7,94.7c0,52.2,42.5,94.7,94.7,94.7c52.2,0,94.7-42.5,94.7-94.7C276.9,130,234.4,87.5,182.2,87.5   z"></path>
	<path class="st0" d="M182.2,235.1c-29.2,0-52.9-23.7-52.9-52.9s23.7-52.9,52.9-52.9s52.9,23.7,52.9,52.9S211.4,235.1,182.2,235.1z    M182.2,131.3c-28.1,0-50.9,22.8-50.9,50.9c0,28.1,22.8,50.9,50.9,50.9s50.9-22.8,50.9-50.9C233.1,154.1,210.3,131.3,182.2,131.3z"></path>
	<path class="st0" d="M182.2,211.5c-15.4,0-27.9-13.1-27.9-29.3c0-16.1,12.5-29.3,27.9-29.3s27.9,13.1,27.9,29.3   C210.1,198.4,197.6,211.5,182.2,211.5z M182.2,154.9c-14.3,0-25.9,12.2-25.9,27.3c0,15,11.6,27.3,25.9,27.3s25.9-12.2,25.9-27.3   C208.1,167.2,196.5,154.9,182.2,154.9z"></path>
</g>
</svg>
