<?xml version="1.0" encoding="UTF-8"?>
<svg xmlns="http://www.w3.org/2000/svg" id="Ebene_3" data-name="Ebene 3" viewBox="0 0 145.99 41.31">
  <defs>
    <style>
      .cls-1 {
        fill: #ff000f;
      }
    </style>
  </defs>
  <path class="cls-1" d="M74.01,35.2h1.77c5.3-.27,9.02-4.42,9.02-9.37,0-1.68-.35-3.36-1.15-4.69h-9.64v14.06Z"></path>
  <rect class="cls-1" x="64.28" y="21.06" width="8.84" height="14.15"></rect>
  <path class="cls-1" d="M83.11,20.17c-.88-1.24-2.12-2.21-3.45-2.92,1.59-1.15,2.65-3.01,2.65-5.04,0-3.45-2.74-6.19-6.19-6.19h-2.12v14.15h9.11Z"></path>
  <rect class="cls-1" x="64.28" y="6.03" width="8.84" height="14.15"></rect>
  <path class="cls-1" d="M97.88,35.2h1.77c5.3-.27,9.02-4.42,9.02-9.37,0-1.68-.35-3.36-1.15-4.69h-9.64v14.06Z"></path>
  <rect class="cls-1" x="88.15" y="21.06" width="8.84" height="14.15"></rect>
  <path class="cls-1" d="M106.98,20.17c-.88-1.24-2.12-2.21-3.45-2.92,1.59-1.15,2.65-3.01,2.65-5.04,0-3.45-2.74-6.19-6.19-6.19h-2.12v14.15h9.11Z"></path>
  <rect class="cls-1" x="88.15" y="6.03" width="8.84" height="14.15"></rect>
  <polygon class="cls-1" points="37.49 21.06 32.45 35.2 39.79 35.2 41.91 29.01 46.6 29.01 46.6 21.06 37.49 21.06"></polygon>
  <polygon class="cls-1" points="46.6 6.03 42.8 6.03 37.76 20.17 46.6 20.17 46.6 6.03"></polygon>
  <polygon class="cls-1" points="47.48 29.01 52.17 29.01 54.29 35.2 61.63 35.2 56.59 21.06 47.48 21.06 47.48 29.01"></polygon>
  <polygon class="cls-1" points="56.32 20.17 51.28 6.03 47.48 6.03 47.48 20.17 56.32 20.17"></polygon>
</svg>
