<?xml version="1.0" encoding="UTF-8"?>
<svg xmlns="http://www.w3.org/2000/svg" id="Ebene_2" data-name="Ebene 2" viewBox="0 0 145.99 41.31">
  <path d="M36.73,30.05h3.95V14.16h-3.95v1.3c-3.73-2.59-8.81-1.67-11.4,2.05s-1.67,8.81,2.05,11.4c2.81,1.95,6.54,1.95,9.35,0v1.13h0Zm-9.03-7.89c0-2.49,2.05-4.54,4.54-4.54s4.54,2.05,4.54,4.54-2.05,4.54-4.54,4.54-4.54-2-4.54-4.54h0m27.46-13.4v6.7c-3.73-2.59-8.81-1.62-11.4,2.05-2.59,3.67-1.62,8.81,2.05,11.4,2.81,1.95,6.54,1.95,9.35,0v1.13h3.95V8.75h-3.95Zm-9.03,13.41c0-2.49,2.05-4.54,4.54-4.54s4.54,2.05,4.54,4.54-2.05,4.54-4.54,4.54-4.54-2-4.54-4.54h0m18.86-13.4h-3.95v3.95h3.95s0-3.95,0-3.95Zm0,5.41h-3.95v15.89h3.95V14.16h0Zm14.48-5.4v6.7c-3.73-2.59-8.81-1.67-11.4,2.05s-1.67,8.81,2.05,11.4c2.81,1.95,6.54,1.95,9.35,0v1.13h3.95V8.75h-3.95Zm-9.03,13.41c0-2.49,2.05-4.54,4.54-4.54s4.54,2.05,4.54,4.54-2.05,4.54-4.54,4.54-4.54-2-4.54-4.54h0m27.51,7.89h3.95V14.16h-3.95v1.3c-3.73-2.59-8.81-1.67-11.4,2.05-2.59,3.73-1.67,8.81,2.05,11.4,2.81,1.95,6.54,1.95,9.35,0v1.13h0Zm-9.03-7.89c0-2.49,2.05-4.54,4.54-4.54s4.54,2.05,4.54,4.54-2.05,4.54-4.54,4.54-4.54-2-4.54-4.54h0m14.43,2.7c.11,3.19,2.87,5.46,7.41,5.46,3.73,0,6.81-1.62,6.81-5.19,0-2.49-1.41-3.95-4.65-4.54l-2.54-.49c-1.62-.33-2.76-.59-2.76-1.57,0-1.08,1.08-1.51,2.43-1.51,2,0,2.81,.97,2.87,2.16h4c-.21-3.13-2.7-5.19-6.7-5.19s-6.59,2.27-6.59,5.24c0,3.62,2.92,4.21,5.46,4.65l2.11,.38c1.51,.27,2.16,.7,2.16,1.57,0,.76-.76,1.57-2.54,1.57-2.59,0-3.41-1.35-3.46-2.49l-4-.05h0Z"></path>
</svg>
