<?xml version="1.0" encoding="UTF-8"?>
<svg xmlns="http://www.w3.org/2000/svg" id="Ebene_5" data-name="Ebene 5" viewBox="0 0 145.99 41.31">
  <defs>
    <style>
      .cls-1 {
        fill: #e20015;
      }

      .cls-2 {
        fill: #575757;
      }
    </style>
  </defs>
  <g>
    <path class="cls-1" d="M65.25,20.03s2.26-.77,2.26-3.33c0-3-2.13-4.49-5.05-4.49h-7.66V28.51h8.33c2.56,0,5.07-1.79,5.07-4.54,0-3.25-2.95-3.92-2.95-3.95Zm-6.46-4.43h2.97c.92,0,1.54,.62,1.54,1.54,0,.72-.56,1.49-1.61,1.49h-2.92v-3.02h.03Zm3,9.51h-2.97v-3.2h2.9c1.46,0,2.15,.64,2.15,1.59,0,1.18-.87,1.61-2.08,1.61Z"></path>
    <path class="cls-1" d="M77.01,11.8c-4.72,0-7.48,3.77-7.48,8.53s2.77,8.53,7.48,8.53,7.48-3.74,7.48-8.53c0-4.77-2.74-8.53-7.48-8.53Zm0,13.17c-2.31,0-3.46-2.08-3.46-4.64s1.15-4.61,3.46-4.61,3.49,2.08,3.49,4.61c0,2.56-1.18,4.64-3.49,4.64Z"></path>
    <path class="cls-1" d="M93.18,18.6l-.56-.13c-1.38-.28-2.49-.64-2.49-1.64,0-1.08,1.05-1.51,1.97-1.51,1.36,0,2.56,.67,3.33,1.51l2.54-2.51c-1.15-1.31-3.02-2.56-5.95-2.56-3.43,0-6.02,1.92-6.02,5.13,0,2.92,2.1,4.36,4.66,4.9l.56,.13c2.13,.44,2.92,.77,2.92,1.79s-.87,1.61-2.2,1.61c-1.59,0-3.02-.69-4.13-2.1l-2.59,2.56c1.44,1.72,3.25,3.05,6.77,3.05,3.05,0,6.3-1.74,6.3-5.31,.03-3.72-2.79-4.43-5.13-4.92Z"></path>
    <path class="cls-1" d="M107.41,24.98c-1.79,0-3.66-1.49-3.66-4.74,0-2.9,1.74-4.51,3.56-4.51,1.44,0,2.28,.67,2.95,1.82l3.28-2.18c-1.64-2.49-3.59-3.54-6.28-3.54-4.92,0-7.59,3.82-7.59,8.43,0,4.84,2.95,8.64,7.53,8.64,3.23,0,4.77-1.13,6.43-3.54l-3.31-2.23c-.67,1.08-1.38,1.85-2.92,1.85Z"></path>
    <polygon class="cls-1" points="124.47 12.19 124.47 18.19 119.53 18.19 119.53 12.19 115.25 12.19 115.25 28.49 119.53 28.49 119.53 22.06 124.47 22.06 124.47 28.49 128.75 28.49 128.75 12.19 124.47 12.19"></polygon>
  </g>
  <g id="_87_87_87_0_0_0" data-name="87/87/87 | 0/0/0">
    <g>
      <path class="cls-2" d="M30.13,8.01c-6.82,0-12.35,5.54-12.35,12.35s5.54,12.35,12.35,12.35,12.35-5.54,12.35-12.35-5.54-12.35-12.35-12.35Zm0,23.55c-6.18,0-11.2-5.02-11.2-11.2s5.02-11.2,11.2-11.2,11.2,5.02,11.2,11.2-5.02,11.2-11.2,11.2Z"></path>
      <path class="cls-2" d="M35.23,12.65h-.85v4.23h-8.48v-4.23h-.87c-2.49,1.67-4.15,4.49-4.15,7.71s1.67,6.05,4.15,7.71h.87v-4.23h8.48v4.23h.85c2.51-1.67,4.15-4.49,4.15-7.71s-1.64-6.05-4.15-7.71Zm-10.51,13.76c-1.72-1.51-2.72-3.69-2.72-6.05s1-4.54,2.72-6.05v12.1Zm9.66-3.74h-8.48v-4.64h8.48v4.64Zm1.15,3.72v-2.56h0v-6.95h0v-2.56c1.69,1.51,2.69,3.69,2.69,6.02s-1,4.54-2.69,6.05Z"></path>
    </g>
  </g>
</svg>
