<?xml version="1.0" encoding="UTF-8"?>
<svg xmlns="http://www.w3.org/2000/svg" id="Ebene_9" data-name="Ebene 9" viewBox="0 0 145.99 41.31">
  <defs>
    <style>
      .cls-1 {
        fill: #006098;
      }
    </style>
  </defs>
  <path id="path12827" class="cls-1" d="M56.13,33.51c.88,0,1.31-.22,1.31-.88,0-.22,0-.71-.44-1.15l-7.82-10.83s-.22-.22,0-.22l7.38-10.17c.22-.49,.44-.93,.44-1.37,0-.71-.44-.93-1.59-.93h-2.19c-.93,0-1.59,.22-2.24,1.15l-6.23,8.81c-.93,.93-1.15,1.59-1.15,2.52,0,1.31,.22,1.8,1.15,2.9l6.45,9.08c.44,.88,1.09,1.09,2.24,1.09m39.27-8.59c0-.44-.22-.66-.44-1.09l-1.37-4.54c-.22-.22-.44-.44-.66-.44-.44,0-.66,.22-.88,.66,0,0-1.59,5.41-1.59,6.13-.44-2.02-4.65-16.3-4.65-16.3-.49-1.15-.71-1.37-1.8-1.37h-2.02c-1.09,0-1.53,.49-1.53,1.15,0,.22,.22,.66,.22,.93l6.89,21.88c.44,1.37,.93,1.59,2.02,1.59h1.59c1.31,0,1.75-.22,1.97-1.59l1.8-5.63s.44-.88,.44-1.37m7.82,8.59c1.09,0,1.59-.22,2.02-1.59l6.89-21.88c0-.27,.22-.71,.22-.93,0-.66-.44-1.15-1.31-1.15h-2.24c-1.09,0-1.37,.22-1.59,1.37,0,0-4.21,14.27-4.65,16.3-.71-2.02-4.92-16.3-4.92-16.3-.22-1.15-.44-1.37-1.59-1.37h-2.19c-.93,0-1.37,.49-1.37,1.15,0,.22,.22,.66,.22,.93l6.95,21.88c.44,1.37,.88,1.59,1.97,1.59m-26.53-14.66c1.31,0,1.75,.44,1.75,2.02v.88c0,1.59-.44,2.08-1.75,2.08h-2.9c-1.37,0-1.8-.49-1.8-2.08v-.88c0-1.59,.44-2.02,1.8-2.02m-5.58,14.66c1.53,0,1.97-.44,1.97-1.8V15.24c0-1.15,.93-2.08,2.02-2.08h6.02c1.37,0,1.8-.44,1.8-2.02v-1.09c0-1.59-.44-2.08-1.8-2.08h-7.6c-3.34,0-5.8,2.3-5.8,6.56V31.7c0,1.37,.44,1.8,2.02,1.8m-22.53,0c1.53,0,2.02-.44,2.02-1.8V9.77c0-1.31-.49-1.8-2.02-1.8h-1.37c-1.53,0-1.97,.49-1.97,1.8V31.7c0,1.37,.44,1.8,1.97,1.8"></path>
</svg>
