<?xml version="1.0" encoding="UTF-8"?>
<svg xmlns="http://www.w3.org/2000/svg" id="Ebene_10" data-name="Ebene 10" viewBox="0 0 145.99 41.31">
  <defs>
    <style>
      .cls-1 {
        fill: #e60012;
      }
    </style>
  </defs>
  <g id="layer1">
    <g id="g23944">
      <g id="g13605">
        <path id="path13607" class="cls-1" d="M66.2,13.77c-1.81,0-3.86,.84-5.12,2.51h0s0,0,0,0v-2.25s-4.31,0-4.31,0v15.69h4.31v-8.93c0-1.61,1.25-3.31,3.55-3.31,1.78,0,3.63,1.24,3.63,3.31v8.93h4.31v-9.73c0-3.61-2.58-6.23-6.37-6.23"></path>
      </g>
      <g id="g13609">
        <path id="path13611" class="cls-1" d="M103.19,14.03l-3.89,10.69-3.89-10.69h-4.92l6.45,15.68h4.72l6.45-15.68h-4.92Z"></path>
      </g>
      <g id="g13613">
        <path id="path13615" class="cls-1" d="M43.92,18.76c.73-.99,1.9-1.56,3.31-1.56,1.55,0,2.73,.89,3.34,2.2l-7.53,3.12c-.21-1.6,.2-2.86,.87-3.75m8.28,6.14c-1.81,1.34-2.85,1.66-4.5,1.66-1.49,0-2.65-.46-3.47-1.27l11.01-4.57c-.24-1.7-.89-3.22-1.88-4.38-1.45-1.68-3.59-2.57-6.2-2.57-4.74,0-8.31,3.49-8.31,8.11s3.58,8.11,8.78,8.11c2.92,0,5.9-1.38,7.29-3l-2.72-2.09Z"></path>
      </g>
      <g id="g13617">
        <path id="path13619" class="cls-1" d="M38.44,25.77h-9.79V9.34h-4.37V29.72h14.16v-3.96Z"></path>
      </g>
      <g id="g13621">
        <path id="path13623" class="cls-1" d="M115.85,17.46c-2.41,0-4.15,1.82-4.15,4.42s1.85,4.42,4.21,4.42,4.15-1.87,4.15-4.42-1.85-4.42-4.21-4.42m0,12.53c-4.71,0-8.4-3.51-8.4-8.11s3.72-8.11,8.46-8.11,8.4,3.51,8.4,8.11-3.72,8.11-8.46,8.11"></path>
      </g>
      <g id="g13625">
        <path id="path13627" class="cls-1" d="M82.68,17.46c-2.41,0-4.15,1.82-4.15,4.42s1.85,4.42,4.21,4.42,4.15-1.87,4.15-4.42-1.85-4.42-4.21-4.42m0,12.53c-4.71,0-8.4-3.51-8.4-8.11s3.72-8.11,8.46-8.11,8.4,3.51,8.4,8.11-3.72,8.11-8.46,8.11"></path>
      </g>
    </g>
  </g>
</svg>
