<?xml version="1.0" encoding="UTF-8"?>
<svg xmlns="http://www.w3.org/2000/svg" id="Ebene_1" data-name="Ebene 1" viewBox="0 0 145.99 41.31">
  <defs>
    <style>
      .cls-1 {
        fill: #00205b;
      }
    </style>
  </defs>
  <path class="cls-1" d="M69.93,17.76c0-3.37-2.21-5.93-6.76-5.93h-9.16V29.54h4.31V15.67h4.88c1.8,0,2.45,1.02,2.45,2.21s-.68,2.21-2.48,2.21h-4.18l5.93,9.46h4.91s-4.05-6.36-4.02-6.36c2.51-.59,4.12-2.35,4.12-5.42"></path>
  <path class="cls-1" d="M46.79,11.84h4.31V29.54h-4.31V11.84Z"></path>
  <path class="cls-1" d="M35.76,22.86h-3.63l2.68-5.44h.05l6.04,12.13h4.96l-9.03-17.71h-3.82l-9.03,17.71h4.85l1.46-2.97h7.27l-1.8-3.72h0s0,0,0,0Z"></path>
  <path class="cls-1" d="M85.68,20.35c1.38-.76,2.1-1.96,2.1-3.74,0-2.85-2.12-4.77-5.72-4.77h-10.08V29.55h10.48c3.66,0,6.06-1.96,6.06-4.96,0-2.08-1.16-3.64-2.85-4.23m-9.38-4.77h5.77c.86,0,1.54,.68,1.54,1.56s-.68,1.56-1.57,1.56h-5.74v-3.12h0Zm5.88,10.24h-5.88v-3.61h5.88c1.05,0,1.86,.76,1.86,1.78s-.81,1.83-1.86,1.83"></path>
  <path class="cls-1" d="M102.14,21.73c0,2.68-1.24,4.18-3.69,4.18s-3.66-1.48-3.66-4.18V11.84h-4.42v9.57c0,5.47,2.88,8.52,8.09,8.52s8.11-3.05,8.11-8.52V11.84h-4.42v9.89h0Z"></path>
  <path class="cls-1" d="M118.08,18.87c-4.09-.99-4.99-1.09-4.99-2.27,0-.9,1.02-1.35,2.75-1.35,2.29,0,4.73,.57,6.12,1.43l1.38-3.61c-1.78-.94-4.39-1.62-7.44-1.62-4.55,0-7.12,2.27-7.12,5.31,0,3.27,1.91,4.61,6.31,5.55,3.42,.76,4.15,1.22,4.15,2.19,0,1.04-.94,1.51-2.8,1.51-2.69,0-5.13-.65-7.08-1.72l-1.31,3.77c2.12,1.13,5.31,1.86,8.52,1.86,4.47,0,7.14-2.08,7.14-5.55,0-2.79-1.8-4.58-5.61-5.5"></path>
</svg>
