<?xml version="1.0" encoding="UTF-8"?>
<svg xmlns="http://www.w3.org/2000/svg" id="Ebene_8" data-name="Ebene 8" viewBox="0 0 145.99 41.31">
  <defs>
    <style>
      .cls-1 {
        fill: #ec1b23;
        fill-rule: evenodd;
      }
    </style>
  </defs>
  <g id="layer1">
    <g id="g10459">
      <path id="path5197" class="cls-1" d="M71.75,.32c20.04,0,36.31,9.06,36.31,20.23s-16.27,20.22-36.31,20.22-36.3-9.06-36.3-20.22S51.71,.32,71.75,.32Zm0,1.82c-19.02,0-34.47,8.26-34.47,18.4s15.45,18.39,34.47,18.39,34.47-8.24,34.47-18.39S90.77,2.15,71.75,2.15Zm-6.38,20.34h-7.15c.08,1.76,1.07,2.57,2.55,2.57,1.1,0,1.85-.62,2.04-1.24h2.34c-.6,2.13-2.34,3.11-4.48,3.11-3.04,0-4.93-2.09-4.93-5.08s2-5.1,4.93-5.1c3.29,0,4.88,2.76,4.7,5.73Zm-4.76-3.91c-1.49,0-2.25,.99-2.36,2.25h4.64c-.18-1.35-.74-2.25-2.27-2.25Zm35.7,3.91h-7.15c.08,1.76,1.07,2.57,2.54,2.57,1.11,0,1.86-.62,2.05-1.24h2.34c-.6,2.13-2.34,3.11-4.48,3.11-3.05,0-4.93-2.09-4.93-5.08s2-5.1,4.93-5.1c3.29,0,4.88,2.76,4.7,5.73Zm-4.77-3.91c-1.48,0-2.24,.99-2.36,2.25h4.65c-.18-1.35-.74-2.25-2.28-2.25Zm-48.29,8.09h2.65v-5.75h5.73v5.75h2.65V13.31h-2.65v5.47h-5.73v-5.47h-2.65v13.36Zm23.59,0h2.5v-5.22c0-1.96,.69-2.76,2.13-2.76,1.23,0,1.79,.78,1.79,2.37v5.62h2.49v-5.94c0-2.39-.71-3.98-3.54-3.98-1.11,0-2.28,.52-2.95,1.61h-.06v-1.34h-2.36v9.66Zm11.04,0h2.49v-5.23l3.68,5.23h3.1l-4.05-5.42,3.59-4.24h-2.97l-3.34,4.16v-7.87h-2.49v13.36Zm19.9,0h2.49V13.31h-2.49v13.36"></path>
    </g>
  </g>
</svg>
