<?xml version="1.0" encoding="UTF-8"?>
<svg xmlns="http://www.w3.org/2000/svg" id="Ebene_11" data-name="Ebene 11" viewBox="0 0 145.99 41.31">
  <defs>
    <style>
      .cls-1 {
        fill: #099;
        fill-rule: evenodd;
      }
    </style>
  </defs>
  <g id="Ebene_1">
    <path class="cls-1" d="M125.44,13.23v3.12c-1.62-.61-3.06-.92-4.32-.92-.75,0-1.34,.14-1.79,.41-.45,.27-.67,.6-.67,.99,0,.52,.5,.98,1.52,1.4l2.93,1.43c2.37,1.13,3.55,2.63,3.55,4.52,0,1.57-.62,2.82-1.88,3.74-1.25,.94-2.93,1.4-5.03,1.4-.97,0-1.84-.04-2.61-.13-.77-.08-1.66-.25-2.64-.5v-3.27c1.8,.61,3.45,.92,4.92,.92,1.76,0,2.64-.51,2.64-1.54,0-.51-.36-.93-1.09-1.25l-3.26-1.39c-1.2-.54-2.1-1.2-2.68-1.98-.58-.79-.87-1.69-.87-2.72,0-1.44,.61-2.61,1.81-3.49,1.21-.88,2.82-1.32,4.82-1.32,.65,0,1.4,.06,2.23,.16,.84,.11,1.64,.25,2.41,.42h0Z"></path>
    <path class="cls-1" d="M33.14,13.23v3.12c-1.62-.61-3.05-.92-4.31-.92-.75,0-1.34,.14-1.79,.41-.45,.27-.67,.6-.67,.99,0,.52,.51,.98,1.53,1.4l2.93,1.43c2.36,1.13,3.54,2.63,3.54,4.52,0,1.57-.63,2.82-1.88,3.74-1.26,.94-2.93,1.4-5.04,1.4-.97,0-1.84-.04-2.61-.13-.77-.08-1.65-.25-2.64-.5v-3.27c1.81,.61,3.45,.92,4.92,.92,1.76,0,2.64-.51,2.64-1.54,0-.51-.36-.93-1.08-1.25l-3.26-1.39c-1.21-.54-2.1-1.2-2.68-1.98-.58-.79-.87-1.69-.87-2.72,0-1.44,.6-2.61,1.81-3.49,1.2-.88,2.81-1.32,4.81-1.32,.66,0,1.4,.06,2.23,.16,.83,.11,1.63,.25,2.4,.42Z"></path>
    <polygon class="cls-1" points="36.5 12.94 41.28 12.94 41.28 29.02 36.5 29.02 36.5 12.94"></polygon>
    <polygon class="cls-1" points="56.68 12.94 56.68 15.91 49.58 15.91 49.58 19.48 55.74 19.48 55.74 22.16 49.58 22.16 49.58 25.9 56.82 25.9 56.82 29.02 44.98 29.02 44.98 12.94 56.68 12.94"></polygon>
    <polygon class="cls-1" points="78.99 12.94 78.99 29.02 74.53 29.02 74.53 18.41 69.9 29.17 67.14 29.17 62.69 18.41 62.69 29.02 59.47 29.02 59.47 12.94 65.3 12.94 69.28 22.78 73.45 12.94 78.99 12.94"></polygon>
    <polygon class="cls-1" points="94.38 12.94 94.38 15.91 87.32 15.91 87.32 19.48 93.47 19.48 93.47 22.16 87.32 22.16 87.32 25.9 94.52 25.9 94.52 29.02 82.68 29.02 82.68 12.94 94.38 12.94"></polygon>
    <polygon class="cls-1" points="111.14 12.94 111.14 29.02 106.08 29.02 100.39 18.7 100.39 29.02 97.16 29.02 97.16 12.94 102.38 12.94 107.92 23.08 107.92 12.94 111.14 12.94"></polygon>
  </g>
</svg>
