<?xml version="1.0" encoding="UTF-8"?>
<svg xmlns="http://www.w3.org/2000/svg" id="Ebene_12" data-name="Ebene 12" viewBox="0 0 145.99 41.31">
  <defs>
    <style>
      .cls-1 {
        fill: #00f2ea;
      }

      .cls-2 {
        fill: #ff004f;
      }
    </style>
  </defs>
  <path class="cls-2" d="M44.12,16.84c1.76,1.26,3.91,2,6.24,2v-4.47c-.44,0-.88-.05-1.31-.14v3.52c-2.33,0-4.48-.74-6.24-2v9.13c0,4.57-3.71,8.27-8.28,8.27-1.71,0-3.29-.52-4.61-1.4,1.5,1.54,3.6,2.49,5.92,2.49,4.57,0,8.28-3.7,8.28-8.27v-9.13h0Zm1.62-4.51c-.9-.98-1.49-2.25-1.62-3.65v-.58h-1.24c.31,1.78,1.38,3.3,2.86,4.23h0Zm-12.92,15.92c-.5-.66-.77-1.46-.77-2.29,0-2.09,1.69-3.78,3.79-3.78,.39,0,.78,.06,1.15,.18v-4.57c-.43-.06-.87-.08-1.31-.08v3.56c-.37-.12-.76-.18-1.15-.18-2.09,0-3.79,1.69-3.79,3.78,0,1.48,.85,2.76,2.08,3.38Z"></path>
  <path d="M42.81,15.75c1.76,1.26,3.91,2,6.24,2v-3.52c-1.3-.28-2.45-.95-3.31-1.9-1.48-.92-2.55-2.45-2.86-4.23h-3.26V25.97c0,2.08-1.7,3.77-3.79,3.77-1.23,0-2.32-.59-3.01-1.49-1.24-.62-2.08-1.9-2.08-3.38,0-2.09,1.69-3.78,3.79-3.78,.4,0,.79,.06,1.15,.18v-3.56c-4.49,.09-8.1,3.76-8.1,8.27,0,2.25,.9,4.29,2.36,5.78,1.32,.88,2.9,1.4,4.61,1.4,4.57,0,8.28-3.7,8.28-8.27V15.75h0Z"></path>
  <path class="cls-1" d="M49.05,14.22v-.95c-1.17,0-2.32-.33-3.31-.95,.88,.96,2.04,1.63,3.31,1.9Zm-6.17-6.13c-.03-.17-.05-.34-.07-.51v-.58h-4.5V24.88c0,2.08-1.7,3.77-3.79,3.77-.61,0-1.19-.15-1.7-.4,.69,.91,1.78,1.49,3.01,1.49,2.09,0,3.78-1.69,3.79-3.77V8.1h3.26Zm-7.21,9.6v-1.01c-.38-.05-.76-.08-1.14-.08-4.57,0-8.28,3.7-8.28,8.27,0,2.86,1.46,5.39,3.67,6.87-1.46-1.49-2.36-3.53-2.36-5.78,0-4.51,3.61-8.18,8.1-8.27Z"></path>
  <path class="cls-2" d="M101.23,29.41c3.27,0,5.92-2.63,5.92-5.87s-2.65-5.87-5.92-5.87h-.89c3.27,0,5.92,2.63,5.92,5.87s-2.65,5.87-5.92,5.87h.89Z"></path>
  <path class="cls-1" d="M100.26,17.66h-.89c-3.27,0-5.92,2.63-5.92,5.87s2.65,5.87,5.92,5.87h.89c-3.27,0-5.92-2.63-5.92-5.87,0-3.24,2.65-5.87,5.92-5.87Z"></path>
  <path d="M55.24,15.01v2.98h3.49v11.34h3.49v-11.26h2.84l.97-3.06h-10.79Zm28.55,0v2.98h3.49v11.34h3.49v-11.26h2.84l.97-3.06h-10.79Zm-17.11,1.69c0-.93,.76-1.69,1.7-1.69s1.7,.76,1.7,1.69-.76,1.69-1.7,1.69c-.94,0-1.7-.76-1.7-1.69Zm0,2.9h3.41v9.74h-3.41v-9.74Zm4.87-4.59v14.32h3.41v-3.7l1.05-.97,3.33,4.75h3.65l-4.79-6.92,4.3-4.18h-4.14l-3.41,3.38v-6.68h-3.41Zm36.74,0v14.32h3.41v-3.7l1.05-.97,3.33,4.75h3.65l-4.79-6.92,4.3-4.18h-4.14l-3.41,3.38v-6.68h-3.41Z"></path>
  <path d="M100.34,29.41c3.27,0,5.92-2.63,5.92-5.87s-2.65-5.87-5.92-5.87h-.08c-3.27,0-5.92,2.63-5.92,5.87s2.65,5.87,5.92,5.87h.08Zm-2.92-5.87c0-1.58,1.29-2.86,2.88-2.86s2.88,1.28,2.88,2.86-1.29,2.86-2.88,2.86c-1.59,0-2.88-1.28-2.88-2.86Z"></path>
</svg>
