<?xml version="1.0" encoding="UTF-8"?>
<svg xmlns="http://www.w3.org/2000/svg" id="Ebene_2" data-name="Ebene 2" viewBox="0 0 66.84 63.92">
  <defs>
    <style>
      .cls-1 {
        fill: #1d1d1b;
      }
    </style>
  </defs>
  <g id="Ebene_1-2" data-name="Ebene 1">
    <g>
      <path class="cls-1" d="M5.84,0C2.61,0,0,2.61,0,5.84s2.61,5.84,5.84,5.84,5.84-2.61,5.84-5.84S9.06,0,5.84,0"></path>
      <path class="cls-1" d="M25.54,1.2c-2.56,0-4.63,2.08-4.63,4.63s2.08,4.63,4.63,4.63,4.63-2.07,4.63-4.63-2.07-4.63-4.63-4.63"></path>
      <path class="cls-1" d="M45.23,2.81c-1.67,0-3.03,1.36-3.03,3.03s1.36,3.03,3.03,3.03,3.03-1.36,3.03-3.03-1.36-3.03-3.03-3.03"></path>
      <path class="cls-1" d="M64.93,7.75c1.05,0,1.91-.85,1.91-1.91s-.86-1.91-1.91-1.91-1.91,.86-1.91,1.91,.86,1.91,1.91,1.91"></path>
      <path class="cls-1" d="M5.84,19.93c-2.56,0-4.63,2.08-4.63,4.63s2.07,4.63,4.63,4.63,4.63-2.07,4.63-4.63-2.07-4.63-4.63-4.63"></path>
      <path class="cls-1" d="M25.54,19.93c-2.56,0-4.63,2.08-4.63,4.63s2.08,4.63,4.63,4.63,4.63-2.07,4.63-4.63-2.07-4.63-4.63-4.63"></path>
      <path class="cls-1" d="M45.23,21.53c-1.67,0-3.03,1.36-3.03,3.03s1.36,3.03,3.03,3.03,3.03-1.36,3.03-3.03-1.36-3.03-3.03-3.03"></path>
      <path class="cls-1" d="M64.93,22.65c-1.06,0-1.91,.86-1.91,1.91s.86,1.91,1.91,1.91,1.91-.86,1.91-1.91-.86-1.91-1.91-1.91"></path>
      <path class="cls-1" d="M25.54,40.25c-1.67,0-3.03,1.36-3.03,3.03s1.36,3.03,3.03,3.03,3.03-1.36,3.03-3.03-1.36-3.03-3.03-3.03"></path>
      <path class="cls-1" d="M5.84,40.25c-1.67,0-3.03,1.36-3.03,3.03s1.36,3.03,3.03,3.03,3.03-1.36,3.03-3.03-1.36-3.03-3.03-3.03"></path>
      <path class="cls-1" d="M45.23,40.25c-1.67,0-3.03,1.36-3.03,3.03s1.36,3.03,3.03,3.03,3.03-1.36,3.03-3.03-1.36-3.03-3.03-3.03"></path>
      <path class="cls-1" d="M64.93,41.38c-1.06,0-1.91,.86-1.91,1.91s.86,1.91,1.91,1.91,1.91-.86,1.91-1.91-.86-1.91-1.91-1.91"></path>
      <path class="cls-1" d="M25.54,60.1c-1.06,0-1.91,.86-1.91,1.91s.86,1.91,1.91,1.91,1.91-.86,1.91-1.91-.86-1.91-1.91-1.91"></path>
      <path class="cls-1" d="M5.84,60.1c-1.06,0-1.91,.86-1.91,1.91s.85,1.91,1.91,1.91,1.91-.86,1.91-1.91-.86-1.91-1.91-1.91"></path>
      <path class="cls-1" d="M45.23,60.1c-1.06,0-1.91,.86-1.91,1.91s.86,1.91,1.91,1.91,1.91-.86,1.91-1.91-.86-1.91-1.91-1.91"></path>
      <path class="cls-1" d="M64.93,60.1c-1.06,0-1.91,.86-1.91,1.91s.86,1.91,1.91,1.91,1.91-.86,1.91-1.91-.86-1.91-1.91-1.91"></path>
    </g>
  </g>
</svg>
