<?xml version="1.0" encoding="UTF-8"?>
<svg xmlns="http://www.w3.org/2000/svg" viewBox="0 0 67.47 67.47">
  <g fill="#1d1d1b">
    <path d="m33.74 46.36c-1.56 0-2.83 1.27-2.83 2.83s1.27 2.83 2.83 2.83 2.83-1.27 2.83-2.83-1.27-2.83-2.83-2.83"></path>
    <path d="m33.74 0c-1.56 0-2.83 1.27-2.83 2.83s1.27 2.83 2.83 2.83 2.83-1.27 2.83-2.83-1.27-2.83-2.83-2.83"></path>
    <path d="m33.74 61.81c-1.56 0-2.83 1.27-2.83 2.83s1.27 2.83 2.83 2.83 2.83-1.27 2.83-2.83-1.27-2.83-2.83-2.83"></path>
    <path d="m33.74 15.45c-1.56 0-2.83 1.27-2.83 2.83s1.27 2.83 2.83 2.83 2.83-1.27 2.83-2.83-1.27-2.83-2.83-2.83"></path>
    <path d="m64.64 30.91c-1.56 0-2.83 1.27-2.83 2.83s1.27 2.83 2.83 2.83 2.83-1.27 2.83-2.83-1.27-2.83-2.83-2.83"></path>
    <path d="m2.83 30.91c-1.56 0-2.83 1.27-2.83 2.83s1.27 2.83 2.83 2.83 2.83-1.27 2.83-2.83-1.27-2.83-2.83-2.83"></path>
    <path d="m49.19 30.91c-1.56 0-2.83 1.27-2.83 2.83s1.27 2.83 2.83 2.83 2.83-1.27 2.83-2.83-1.27-2.83-2.83-2.83"></path>
    <path d="m21.11 33.74c0-1.56-1.27-2.83-2.83-2.83s-2.83 1.27-2.83 2.83 1.27 2.83 2.83 2.83 2.83-1.27 2.83-2.83"></path>
    <path d="m20.81 42.66c-1.11 1.11-1.11 2.9 0 4 1.1 1.11 2.9 1.11 4 0 1.11-1.1 1.11-2.9 0-4-1.1-1.1-2.9-1.1-4 0"></path>
    <path d="m53.59 9.88c-1.11 1.11-1.11 2.9 0 4 1.1 1.11 2.9 1.11 4 0 1.1-1.1 1.1-2.9 0-4s-2.9-1.1-4 0"></path>
    <path d="m9.88 53.59c-1.11 1.11-1.11 2.9 0 4 1.1 1.11 2.9 1.11 4 0 1.11-1.1 1.11-2.9 0-4-1.1-1.1-2.9-1.1-4 0"></path>
    <path d="m46.67 24.81c1.1-1.1 1.1-2.9 0-4-1.11-1.11-2.9-1.11-4 0-1.1 1.1-1.1 2.9 0 4 1.1 1.11 2.9 1.11 4 0"></path>
    <path d="m53.59 53.59c-1.11 1.11-1.11 2.9 0 4 1.1 1.11 2.9 1.11 4 0 1.1-1.1 1.1-2.9 0-4s-2.9-1.1-4 0"></path>
    <path d="m9.88 9.88c-1.11 1.11-1.11 2.9 0 4 1.1 1.11 2.9 1.11 4 0 1.11-1.1 1.11-2.9 0-4-1.1-1.1-2.9-1.1-4 0"></path>
    <path d="m42.66 42.66c-1.11 1.11-1.11 2.9 0 4 1.1 1.11 2.9 1.11 4 0 1.1-1.1 1.1-2.9 0-4s-2.9-1.1-4 0"></path>
    <path d="m20.81 20.81c-1.11 1.11-1.11 2.9 0 4 1.1 1.11 2.9 1.11 4 0 1.11-1.1 1.11-2.9 0-4-1.1-1.1-2.9-1.1-4 0"></path>
    <path d="m31.74 31.74c-1.11 1.11-1.11 2.9 0 4 1.1 1.11 2.9 1.11 4 0 1.1-1.1 1.1-2.9 0-4s-2.9-1.1-4 0"></path>
  </g>
</svg>
