<?xml version="1.0" encoding="UTF-8"?>
<svg xmlns="http://www.w3.org/2000/svg" id="Ebene_2" data-name="Ebene 2" viewBox="0 0 69.42 69.42">
  <defs>
    <style>
      .cls-1 {
        fill: none;
        stroke: #1d1d1b;
        stroke-miterlimit: 10;
        stroke-width: .32px;
      }
    </style>
  </defs>
  <g id="Ebene_1-2" data-name="Ebene 1">
    <g>
      <path class="cls-1" d="M34.71,69.26C15.66,69.26,.16,53.76,.16,34.71S15.66,.16,34.71,.16s34.55,15.5,34.55,34.55-15.5,34.55-34.55,34.55"></path>
      <path class="cls-1" d="M34.71,61.82c-14.95,0-27.11-12.16-27.11-27.11S19.76,7.6,34.71,7.6s27.11,12.16,27.11,27.11-12.16,27.11-27.11,27.11"></path>
      <path class="cls-1" d="M34.71,54.38c-10.84,0-19.67-8.82-19.67-19.67S23.87,15.04,34.71,15.04s19.67,8.82,19.67,19.67-8.82,19.67-19.67,19.67"></path>
      <path class="cls-1" d="M34.71,46.93c-6.74,0-12.22-5.48-12.22-12.22s5.48-12.22,12.22-12.22,12.22,5.48,12.22,12.22-5.48,12.22-12.22,12.22"></path>
      <path class="cls-1" d="M34.71,39.49c-2.64,0-4.78-2.14-4.78-4.78s2.14-4.78,4.78-4.78,4.78,2.14,4.78,4.78-2.14,4.78-4.78,4.78"></path>
    </g>
  </g>
</svg>
